<svg width="30" height="30" viewBox="0 0 30 30" fill="none" xmlns="http://www.w3.org/2000/svg">
<path d="M19.869 4.87012H9.95633C7.21902 4.87012 5 7.08914 5 9.82645V19.7391C5 22.4764 7.21902 24.6954 9.95633 24.6954H19.869C22.6063 24.6954 24.8253 22.4764 24.8253 19.7391V9.82645C24.8253 7.08914 22.6063 4.87012 19.869 4.87012Z" stroke="white" stroke-width="1.98253" stroke-linecap="round" stroke-linejoin="round"/>
<path d="M18.8794 14.1579C19.0018 14.9828 18.8609 15.8254 18.4767 16.5657C18.0926 17.3059 17.4849 17.9063 16.7399 18.2812C15.995 18.6562 15.1507 18.7867 14.3273 18.6542C13.5039 18.5217 12.7433 18.1329 12.1535 17.5432C11.5638 16.9535 11.175 16.1928 11.0425 15.3694C10.9101 14.546 11.0406 13.7018 11.4155 12.9568C11.7905 12.2119 12.3908 11.6041 13.1311 11.22C13.8713 10.8359 14.7139 10.695 15.5389 10.8173C16.3804 10.9421 17.1594 11.3342 17.761 11.9358C18.3625 12.5373 18.7546 13.3164 18.8794 14.1579Z" stroke="white" stroke-width="1.98253" stroke-linecap="round" stroke-linejoin="round"/>
<path d="M20.3672 9.33008H20.3785" stroke="white" stroke-width="1.98253" stroke-linecap="round" stroke-linejoin="round"/>
</svg>
