<svg width="30" height="30" viewBox="0 0 30 30" fill="none" xmlns="http://www.w3.org/2000/svg">
<path d="M14.8599 24.98C12.0592 24.98 9.70861 24.0464 7.80813 22.1793C5.92432 20.3122 4.98242 17.9782 4.98242 15.1775C4.98242 12.3768 5.97434 9.98458 7.95817 8.00075C9.942 6.00025 12.3343 5 15.135 5C17.9523 5 20.3196 6.00025 22.2367 8.00075C24.1706 9.98458 25.1375 12.4102 25.1375 15.2776C25.1375 17.078 24.7957 18.5367 24.1122 19.6537C23.4287 20.7539 22.5201 21.3041 21.3865 21.3041C20.5697 21.3041 19.9195 21.029 19.436 20.4789C18.9526 19.9121 18.6942 19.1119 18.6608 18.0783C17.7273 20.2288 16.2352 21.3041 14.1847 21.3041C12.751 21.3041 11.484 20.7289 10.3838 19.5787C9.30017 18.4284 8.75837 16.9697 8.75837 15.2026C8.75837 13.4354 9.27516 11.9517 10.3088 10.7514C11.3423 9.55114 12.7094 8.95099 14.4098 8.95099C15.1766 8.95099 15.9018 9.15104 16.5853 9.55114C17.2688 9.95124 17.7606 10.4264 18.0607 10.9765V10.5014C18.0607 9.83847 18.5981 9.30108 19.261 9.30108C19.9239 9.30108 20.4613 9.83847 20.4613 10.5014V18.0283C20.4613 19.1952 20.9197 19.7787 21.8366 19.7787C22.3534 19.7787 22.8202 19.4036 23.237 18.6534C23.6704 17.8866 23.8872 16.8863 23.8872 15.6527C23.8872 12.9853 23.0786 10.7264 21.4615 8.87597C19.8611 7.02551 17.7856 6.10028 15.235 6.10028C12.701 6.10028 10.5421 6.99217 8.75837 8.77595C6.97459 10.5597 6.0827 12.6936 6.0827 15.1775C6.0827 17.6615 6.92457 19.737 8.60833 21.4041C10.2921 23.0545 12.3759 23.8797 14.8599 23.8797C16.5684 23.8797 17.9365 23.5149 18.9641 22.7853C19.233 22.5944 19.6207 22.6479 19.7893 22.9314C19.9175 23.1471 19.8735 23.4261 19.6687 23.5712C19.1352 23.9489 18.4741 24.2602 17.6856 24.5049C16.7187 24.8216 15.7768 24.98 14.8599 24.98ZM18.0857 15.1025C18.0857 14.0189 17.769 13.127 17.1355 12.4269C16.502 11.7267 15.6768 11.3766 14.6598 11.3766C13.6429 11.3766 12.8261 11.735 12.2092 12.4519C11.5924 13.1687 11.284 14.0523 11.284 15.1025C11.284 16.1361 11.5841 17.0447 12.1842 17.8282C12.801 18.5951 13.6346 18.9785 14.6849 18.9785C15.7351 18.9785 16.5603 18.6034 17.1605 17.8532C17.7773 17.0864 18.0857 16.1695 18.0857 15.1025Z" fill="white"/>
</svg>
