<svg width="30" height="31" viewBox="0 0 30 31" fill="none" xmlns="http://www.w3.org/2000/svg">
<path fill-rule="evenodd" clip-rule="evenodd" d="M24.3006 6.56451C23.0871 5.35049 21.6456 4.38847 20.0588 3.73382C18.4721 3.07918 16.7715 2.74484 15.0551 2.75006C7.85156 2.75006 1.9875 8.58483 1.98457 15.7579C1.98138 18.0419 2.58345 20.286 3.72949 22.2618L1.875 29.0001L8.80371 27.1913C10.7216 28.2303 12.8686 28.7741 15.0498 28.7733H15.0551C22.258 28.7733 28.1215 22.938 28.125 15.7655C28.1294 14.0549 27.7935 12.3605 27.1369 10.7809C26.4804 9.20128 25.5162 7.76803 24.3006 6.56451ZM15.0551 26.5778H15.0504C13.1059 26.5784 11.1967 26.058 9.52148 25.0708L9.1248 24.8364L5.01328 25.9098L6.11074 21.9202L5.85234 21.51C4.76507 19.7886 4.18901 17.7939 4.19121 15.7579C4.19121 9.79713 9.0668 4.94733 15.0592 4.94733C17.9338 4.94219 20.6927 6.07908 22.7292 8.10794C24.7656 10.1368 25.9128 12.8915 25.9184 15.7661C25.916 21.7274 21.0428 26.5778 15.0551 26.5778ZM21.0135 18.4807C20.6871 18.3178 19.0799 17.5315 18.7822 17.4231C18.4846 17.3147 18.2648 17.2602 18.0475 17.586C17.8301 17.9118 17.2037 18.6407 17.0133 18.8604C16.8229 19.0801 16.6324 19.1042 16.3061 18.9413C15.9797 18.7784 14.9268 18.4356 13.6793 17.3282C12.7084 16.4663 12.0533 15.4022 11.8629 15.077C11.6725 14.7518 11.8424 14.5754 12.0059 14.4137C12.1529 14.2678 12.3322 14.034 12.4957 13.8442C12.6592 13.6544 12.7137 13.5184 12.8221 13.3016C12.9305 13.0848 12.8766 12.895 12.7951 12.7327C12.7137 12.5704 12.0604 10.9702 11.7885 10.3192C11.523 9.68522 11.2541 9.77135 11.0537 9.76139C10.8633 9.75201 10.6436 9.74967 10.4273 9.74967C10.2621 9.75397 10.0994 9.7923 9.94962 9.86227C9.79981 9.93223 9.66603 10.0323 9.55664 10.1563C9.25723 10.4821 8.41348 11.2696 8.41348 12.868C8.41348 14.4665 9.58535 16.0133 9.74707 16.2301C9.90879 16.4469 12.0498 19.7299 15.3258 21.138C15.9341 21.3985 16.5557 21.6269 17.1879 21.8223C17.9701 22.0696 18.682 22.035 19.2445 21.9512C19.8721 21.8581 21.1781 21.1649 21.4494 20.4055C21.7207 19.6462 21.7213 18.9958 21.6398 18.8604C21.5584 18.7251 21.3404 18.643 21.0135 18.4807Z" fill="white"/>
</svg>
